<mxfile host="app.diagrams.net" agent="Mozilla/5.0 (Macintosh; Intel Mac OS X 10_15_7) AppleWebKit/537.36 (KHTML, like Gecko) Chrome/130.0.0.0 Safari/537.36" version="24.8.3">
  <diagram name="第 1 页" id="OlQPCR4Cdozd7_Ee-cWt">
    <mxGraphModel dx="1026" dy="650" grid="1" gridSize="10" guides="1" tooltips="1" connect="1" arrows="1" fold="1" page="1" pageScale="1" pageWidth="827" pageHeight="1169" math="0" shadow="0">
      <root>
        <mxCell id="0" />
        <mxCell id="1" parent="0" />
        <mxCell id="LpuV1ZN2g1hDRB_VS-He-7" value="" style="edgeStyle=orthogonalEdgeStyle;rounded=0;orthogonalLoop=1;jettySize=auto;html=1;" edge="1" parent="1" source="LpuV1ZN2g1hDRB_VS-He-1" target="LpuV1ZN2g1hDRB_VS-He-6">
          <mxGeometry relative="1" as="geometry" />
        </mxCell>
        <mxCell id="LpuV1ZN2g1hDRB_VS-He-8" value="登陆/携带第三方应用token" style="edgeLabel;html=1;align=center;verticalAlign=middle;resizable=0;points=[];" vertex="1" connectable="0" parent="LpuV1ZN2g1hDRB_VS-He-7">
          <mxGeometry x="-0.2118" relative="1" as="geometry">
            <mxPoint as="offset" />
          </mxGeometry>
        </mxCell>
        <mxCell id="LpuV1ZN2g1hDRB_VS-He-1" value="第三方应用" style="rounded=1;whiteSpace=wrap;html=1;" vertex="1" parent="1">
          <mxGeometry x="350" y="290" width="120" height="60" as="geometry" />
        </mxCell>
        <mxCell id="LpuV1ZN2g1hDRB_VS-He-4" value="" style="edgeStyle=orthogonalEdgeStyle;rounded=0;orthogonalLoop=1;jettySize=auto;html=1;" edge="1" parent="1" source="LpuV1ZN2g1hDRB_VS-He-3" target="LpuV1ZN2g1hDRB_VS-He-1">
          <mxGeometry relative="1" as="geometry" />
        </mxCell>
        <mxCell id="LpuV1ZN2g1hDRB_VS-He-5" value="登陆" style="edgeLabel;html=1;align=center;verticalAlign=middle;resizable=0;points=[];" vertex="1" connectable="0" parent="LpuV1ZN2g1hDRB_VS-He-4">
          <mxGeometry x="-0.08" y="-3" relative="1" as="geometry">
            <mxPoint as="offset" />
          </mxGeometry>
        </mxCell>
        <mxCell id="LpuV1ZN2g1hDRB_VS-He-3" value="第三方用户" style="rounded=1;whiteSpace=wrap;html=1;" vertex="1" parent="1">
          <mxGeometry x="350" y="130" width="120" height="60" as="geometry" />
        </mxCell>
        <mxCell id="LpuV1ZN2g1hDRB_VS-He-10" value="" style="edgeStyle=orthogonalEdgeStyle;rounded=0;orthogonalLoop=1;jettySize=auto;html=1;" edge="1" parent="1" source="LpuV1ZN2g1hDRB_VS-He-6" target="LpuV1ZN2g1hDRB_VS-He-9">
          <mxGeometry relative="1" as="geometry" />
        </mxCell>
        <mxCell id="LpuV1ZN2g1hDRB_VS-He-6" value="爆米花H5" style="whiteSpace=wrap;html=1;rounded=1;" vertex="1" parent="1">
          <mxGeometry x="700" y="290" width="120" height="60" as="geometry" />
        </mxCell>
        <mxCell id="LpuV1ZN2g1hDRB_VS-He-12" value="" style="edgeStyle=orthogonalEdgeStyle;rounded=0;orthogonalLoop=1;jettySize=auto;html=1;" edge="1" parent="1" source="LpuV1ZN2g1hDRB_VS-He-9">
          <mxGeometry relative="1" as="geometry">
            <mxPoint x="760" y="570" as="targetPoint" />
          </mxGeometry>
        </mxCell>
        <mxCell id="LpuV1ZN2g1hDRB_VS-He-9" value="使用第三方应用token&lt;br&gt;请求第三方应用接口获取用户信息" style="whiteSpace=wrap;html=1;rounded=1;" vertex="1" parent="1">
          <mxGeometry x="700" y="430" width="120" height="60" as="geometry" />
        </mxCell>
        <mxCell id="LpuV1ZN2g1hDRB_VS-He-15" value="" style="edgeStyle=orthogonalEdgeStyle;rounded=0;orthogonalLoop=1;jettySize=auto;html=1;" edge="1" parent="1" source="LpuV1ZN2g1hDRB_VS-He-13" target="LpuV1ZN2g1hDRB_VS-He-14">
          <mxGeometry relative="1" as="geometry" />
        </mxCell>
        <mxCell id="LpuV1ZN2g1hDRB_VS-He-16" value="匹配成功" style="edgeLabel;html=1;align=center;verticalAlign=middle;resizable=0;points=[];" vertex="1" connectable="0" parent="LpuV1ZN2g1hDRB_VS-He-15">
          <mxGeometry x="-0.25" y="1" relative="1" as="geometry">
            <mxPoint as="offset" />
          </mxGeometry>
        </mxCell>
        <mxCell id="LpuV1ZN2g1hDRB_VS-He-22" value="" style="edgeStyle=orthogonalEdgeStyle;rounded=0;orthogonalLoop=1;jettySize=auto;html=1;entryX=0;entryY=0.5;entryDx=0;entryDy=0;" edge="1" parent="1" source="LpuV1ZN2g1hDRB_VS-He-13" target="LpuV1ZN2g1hDRB_VS-He-20">
          <mxGeometry relative="1" as="geometry">
            <mxPoint x="890" y="640" as="targetPoint" />
          </mxGeometry>
        </mxCell>
        <mxCell id="LpuV1ZN2g1hDRB_VS-He-13" value="获取第三方用户唯一标识，与爆米花用户进行匹配，" style="rhombus;whiteSpace=wrap;html=1;" vertex="1" parent="1">
          <mxGeometry x="705" y="570" width="110" height="140" as="geometry" />
        </mxCell>
        <mxCell id="LpuV1ZN2g1hDRB_VS-He-14" value="爆米花h5登陆成功" style="whiteSpace=wrap;html=1;" vertex="1" parent="1">
          <mxGeometry x="700" y="830" width="120" height="60" as="geometry" />
        </mxCell>
        <mxCell id="LpuV1ZN2g1hDRB_VS-He-20" value="根据第三方唯一标识，创建用户信息，分发爆米花token" style="rounded=1;whiteSpace=wrap;html=1;" vertex="1" parent="1">
          <mxGeometry x="980" y="610" width="120" height="60" as="geometry" />
        </mxCell>
        <mxCell id="LpuV1ZN2g1hDRB_VS-He-23" style="edgeStyle=orthogonalEdgeStyle;rounded=0;orthogonalLoop=1;jettySize=auto;html=1;entryX=1;entryY=0.633;entryDx=0;entryDy=0;entryPerimeter=0;" edge="1" parent="1" source="LpuV1ZN2g1hDRB_VS-He-20" target="LpuV1ZN2g1hDRB_VS-He-14">
          <mxGeometry relative="1" as="geometry">
            <Array as="points">
              <mxPoint x="1040" y="868" />
            </Array>
          </mxGeometry>
        </mxCell>
        <mxCell id="LpuV1ZN2g1hDRB_VS-He-24" value="创建新用户并登陆" style="edgeLabel;html=1;align=center;verticalAlign=middle;resizable=0;points=[];" vertex="1" connectable="0" parent="LpuV1ZN2g1hDRB_VS-He-23">
          <mxGeometry x="-0.5359" y="-2" relative="1" as="geometry">
            <mxPoint as="offset" />
          </mxGeometry>
        </mxCell>
      </root>
    </mxGraphModel>
  </diagram>
</mxfile>
